<svg width="33" height="32" viewBox="0 0 33 32" fill="none" xmlns="http://www.w3.org/2000/svg">
<path fill-rule="evenodd" clip-rule="evenodd" d="M16.25 4L16.7331 4.40682L26.2331 12.4068L26.5 12.6316V12.9805V23.9805C26.5 26.5947 24.3642 28.7305 21.75 28.7305H10.75C8.13579 28.7305 6 26.5947 6 23.9805V12.9805V12.6316L6.2669 12.4068L15.7669 4.40682L16.25 4ZM7.5 23.9805C7.5 25.7663 8.96421 27.2305 10.75 27.2305H13V20.9805V20.2305H13.75H18.75H19.5V20.9805V27.2305H21.75C23.5358 27.2305 25 25.7663 25 23.9805V13.3294L16.25 5.96101L7.5 13.3294V23.9805ZM18 27.2305V21.7305H14.5V27.2305H18Z" fill="#A2A2AE"/>
</svg>
